<?xml version="1.0" encoding="utf-8"?>
<!-- Generator: Adobe Illustrator 27.9.0, SVG Export Plug-In . SVG Version: 6.00 Build 0)  -->
<svg version="1.1" id="Ebene_1" xmlns="http://www.w3.org/2000/svg" xmlns:xlink="http://www.w3.org/1999/xlink" x="0px" y="0px"
	 viewBox="0 0 249.4 249.4" style="enable-background:new 0 0 249.4 249.4;" xml:space="preserve">
<style type="text/css">
	.st0{fill-opacity:0;stroke:#389458;stroke-width:15;stroke-linecap:round;stroke-linejoin:round;}
	.st1{fill-opacity:0;stroke:#389458;stroke-width:2;stroke-linecap:round;stroke-linejoin:round;}
	.st2{fill-opacity:0;stroke:#389458;stroke-width:8;stroke-linecap:round;stroke-linejoin:round;}
	.st3{fill-opacity:0;stroke:#389458;stroke-linecap:round;stroke-linejoin:round;}
	.st4{fill-opacity:0;stroke:#389458;stroke-width:8;stroke-linecap:round;}
	.st5{fill-opacity:0;stroke:#389458;stroke-width:1.5;stroke-linecap:round;stroke-linejoin:round;}
	.st6{fill:#389458;}
</style>
<g id="Layer_4_I">
	<path class="st0" d="M91.3,98.6c29.7-17.2,76.1-57,133.7-37.4"/>
	<path class="st1" d="M212.8,118.2c0.6,0,1,0.5,1,1.2v2.8c0,0.7-0.4,1.2-1,1.2h-21.9c-0.6,0-1-0.5-1-1.2v-2.8c0-0.7,0.4-1.2,1-1.2
		H212.8z"/>
	<path class="st2" d="M87.5,97.1c-16.1,6.9-32.2,11.3-45.8,22.6"/>
	<path class="st3" d="M94.4,97.1c-4.9,11.6,12.2,14.2,27.4,12.2"/>
	<path class="st4" d="M72.8,185.3c-13.1,0-23.7-10.6-23.7-23.7c0-13.1,10.6-23.7,23.7-23.7s23.7,10.6,23.7,23.7
		C96.4,174.7,85.8,185.3,72.8,185.3z"/>
	<path class="st5" d="M40.3,116.7c-9.8,8-16.7,44.9,1.3,47.4"/>
	<g>
		<path class="st6" d="M222.9,98.1c2.7,11.8,2.9,7.5,3.6,23.8c0,14.7-7.4,42.1-24.4,43.6l-97.3-0.6l0.1-1.3
			c0-19-14.2-34.4-31.8-34.4s-31.6,15.4-31.6,34.4l-1.7-0.3c-6-4.5-6.9-5.7-7.9-12.2l0.2-10.4c0.9-4.4,5.1-23.1,7.7-23.1l13.4-1.4
			l21.2-10.5l9.2-2.8l9.2-2.2l1.2,3.6l2.8,2.6l4.8,2.1l7.7,1.2L222.9,98.1z M212.8,118.2h-21.9c-0.6,0-1,0.5-1,1.2v2.8
			c0,0.7,0.4,1.2,1,1.2h21.9c0.6,0,1-0.5,1-1.2v-2.8C213.8,118.7,213.4,118.2,212.8,118.2z"/>
		<path class="st1" d="M222.9,98.1c2.7,11.8,2.9,7.5,3.6,23.8c0,14.7-7.4,42.1-24.4,43.6l-97.3-0.6l0.1-1.3
			c0-19-14.2-34.4-31.8-34.4s-31.6,15.4-31.6,34.4l-1.7-0.3c-6-4.5-6.9-5.7-7.9-12.2l0.2-10.4c0.9-4.4,5.1-23.1,7.7-23.1l13.4-1.4
			l21.2-10.5l9.2-2.8l9.2-2.2l1.2,3.6l2.8,2.6l4.8,2.1l7.7,1.2L222.9,98.1z M212.8,118.2h-21.9c-0.6,0-1,0.5-1,1.2v2.8
			c0,0.7,0.4,1.2,1,1.2h21.9c0.6,0,1-0.5,1-1.2v-2.8C213.8,118.7,213.4,118.2,212.8,118.2z"/>
	</g>
	<g>
		<g>
			<path class="st0" d="M15.4,15.8h56.7"/>
			<path class="st0" d="M72.1,72.5V15.8"/>
		</g>
		<path class="st0" d="M127.2,232.4c-63.4,0-114.7-51.4-114.7-114.7c0-42.5,22.3-75.6,57.3-97.9"/>
		<path class="st0" d="M225,61.2c12.6,15.4,15.9,35.2,16.9,56.5c0,63.4-51.4,114.7-114.7,114.7"/>
	</g>
</g>
</svg>
