<svg xmlns="http://www.w3.org/2000/svg" viewBox="0 0 763.11 960.82"><defs><style>.a8e1380d-cd02-451d-9e13-21ef08ef2b48{fill:#c6d970;}.b76f17ac-09d5-42ed-a02c-82d7fe143ce4{fill:#3fb7d9;}.a94c027f-0b55-4e18-bb27-0b5bbb69e152{fill:#06a4d8;}</style></defs><title>SGlogo</title><g id="f9c64496-3f2b-461e-9a2e-cf0ec53d15ce" data-name="Grün"><path class="a8e1380d-cd02-451d-9e13-21ef08ef2b48" d="M892.94,610.33c-44,165.45-198,277.82-381.28,277.82S174.49,775.86,130.42,610.5l124.49-.33c40.13,97.64,140,151.68,256.75,151.68C628.27,761.85,728,708,768.22,610.62ZM638.18,639.88c0,69.75-78.31,194.29-126.28,194.29-35.85,0-126.28-124.54-126.28-194.29S442.15,521.6,511.9,521.6,638.18,570.14,638.18,639.88Z" transform="translate(-130.3 -32.08)"/></g><g id="ae6a3f63-021f-42f7-896d-77df59a66f06" data-name="Türkis"><circle class="b76f17ac-09d5-42ed-a02c-82d7fe143ce4" cx="381.7" cy="165.42" r="53.66"/><circle class="b76f17ac-09d5-42ed-a02c-82d7fe143ce4" cx="53.66" cy="446.45" r="53.66"/><circle class="b76f17ac-09d5-42ed-a02c-82d7fe143ce4" cx="109.31" cy="305.93" r="53.66"/><circle class="b76f17ac-09d5-42ed-a02c-82d7fe143ce4" cx="230.18" cy="203.07" r="53.66"/><circle class="b76f17ac-09d5-42ed-a02c-82d7fe143ce4" cx="709.45" cy="446.45" r="53.66"/><circle class="b76f17ac-09d5-42ed-a02c-82d7fe143ce4" cx="653.8" cy="305.93" r="53.66"/><circle class="b76f17ac-09d5-42ed-a02c-82d7fe143ce4" cx="532.94" cy="203.07" r="53.66"/></g><g id="fedda073-1381-41a5-8d56-b089521ecb5e" data-name="Texte"><path class="a94c027f-0b55-4e18-bb27-0b5bbb69e152" d="M212,179.9l7.26-7.12q3.91,3.39,7.59,3.5a11.24,11.24,0,0,0,7.37-2.87q3.92-3.16,4.56-6.42a6.34,6.34,0,0,0-1.14-5.47,4.67,4.67,0,0,0-2.79-1.75,8.6,8.6,0,0,0-4.31.62q-1.83.65-7.9,3.48-7.81,3.63-12.34,3.4a13.43,13.43,0,0,1-10.21-5.09,13.16,13.16,0,0,1-2.88-7.13,14,14,0,0,1,1.73-8.11,25.67,25.67,0,0,1,6.76-7.76q7.56-6.09,14-5.86a15,15,0,0,1,11.14,5.6l-7.81,6.89q-3-2.67-5.82-2.65T211.07,146a11.92,11.92,0,0,0-4.36,5.91,3.75,3.75,0,0,0,.73,3.53,4,4,0,0,0,3.16,1.46q2.58,0,9.61-3.32a50.47,50.47,0,0,1,11.07-4.17,14.49,14.49,0,0,1,7.72.5A16.21,16.21,0,0,1,249.05,163a14.76,14.76,0,0,1-1.81,8.85,29.12,29.12,0,0,1-7.55,8.5q-7.6,6.13-14.52,5.91T212,179.9Z" transform="translate(-130.3 -32.08)"/><path class="a94c027f-0b55-4e18-bb27-0b5bbb69e152" d="M273.05,140.79l9.15-4a16.13,16.13,0,0,1-.53,10.18,17.55,17.55,0,0,1-7,8q-8.16,5.33-15.55,2.54-5.88-2.26-10.12-8.77-5.06-7.77-3.86-14.83a15.93,15.93,0,0,1,7.41-11.1q7-4.55,14-2.56t13.06,11.61l-20.74,13.51a10,10,0,0,0,5.73,4.42,7.5,7.5,0,0,0,6.11-1.06,6,6,0,0,0,2.58-3.19A7.84,7.84,0,0,0,273.05,140.79Zm-5-8.68q-2.43-3.53-5.42-4.25a6.8,6.8,0,0,0-5.52.93,6.89,6.89,0,0,0-3.19,4.89,9.12,9.12,0,0,0,1.76,6.49Z" transform="translate(-130.3 -32.08)"/><path class="a94c027f-0b55-4e18-bb27-0b5bbb69e152" d="M324.23,125.67l-8.73,4.63-8.92-16.84c-1.88-3.56-3.29-5.77-4.22-6.61a5.48,5.48,0,0,0-3.11-1.48,5.89,5.89,0,0,0-3.49.73,8,8,0,0,0-3.41,3.4,7.09,7.09,0,0,0-.72,4.6c.27,1.61,1.39,4.25,3.34,7.94L302.89,137l-8.73,4.63-17.48-33,8.11-4.29,2.57,4.84a15.28,15.28,0,0,1,13.74-13.1,10,10,0,0,1,5,.73,11.1,11.1,0,0,1,3.65,2.76,31.25,31.25,0,0,1,3.59,5.62Z" transform="translate(-130.3 -32.08)"/><path class="a94c027f-0b55-4e18-bb27-0b5bbb69e152" d="M315.45,83.29l-3.72-8.35,9-4,3.71,8.35ZM332.67,122,317.5,87.92l9-4L341.7,118Z" transform="translate(-130.3 -32.08)"/><path class="a94c027f-0b55-4e18-bb27-0b5bbb69e152" d="M341.41,96.92a20.2,20.2,0,0,1-1-9.78,16.67,16.67,0,0,1,4.06-9A20.39,20.39,0,0,1,353,72.51a18.62,18.62,0,0,1,14.93.43,19,19,0,0,1,9.84,11.22,19.29,19.29,0,0,1-.34,15.06,18.49,18.49,0,0,1-11,9.94,21.68,21.68,0,0,1-10,1.17,15.93,15.93,0,0,1-9-4A22.59,22.59,0,0,1,341.41,96.92Zm9.69-3q1.9,5.22,5.39,7.09a8.61,8.61,0,0,0,12.21-4.43q1.46-3.68-.47-9t-5.35-7a8.61,8.61,0,0,0-12.2,4.44Q349.21,88.74,351.1,94Z" transform="translate(-130.3 -32.08)"/><path class="a94c027f-0b55-4e18-bb27-0b5bbb69e152" d="M399.88,97.63l-9.52,2.62-9.9-36,8.85-2.43,1.41,5.12a15.79,15.79,0,0,1,2.77-5.9,7.73,7.73,0,0,1,3.8-2.29,12.63,12.63,0,0,1,6.76.07l-.66,9.12a8.67,8.67,0,0,0-4.91-.33,5.48,5.48,0,0,0-3.08,2,7.71,7.71,0,0,0-1.09,4.58q0,3.1,2.52,12.29Z" transform="translate(-130.3 -32.08)"/><path class="a94c027f-0b55-4e18-bb27-0b5bbb69e152" d="M435.85,77.32l10-.25a16.18,16.18,0,0,1-4.32,9.23A17.63,17.63,0,0,1,432,91q-9.57,1.84-15.36-3.51-4.61-4.3-6.07-11.93-1.77-9.12,2-15.2a16,16,0,0,1,11-7.49q8.19-1.57,14,2.91t7.72,15.67L421,76.18a10,10,0,0,0,3.65,6.26,7.5,7.5,0,0,0,6.06,1.32,6,6,0,0,0,3.59-2A7.79,7.79,0,0,0,435.85,77.32Zm-1.34-9.91q-.93-4.2-3.42-6a6.78,6.78,0,0,0-5.46-1.22,6.85,6.85,0,0,0-4.8,3.33,9.09,9.09,0,0,0-.82,6.67Z" transform="translate(-130.3 -32.08)"/><path class="a94c027f-0b55-4e18-bb27-0b5bbb69e152" d="M488.93,82.82l-9.84.94-1.8-19q-.57-6-1.37-7.73a5.58,5.58,0,0,0-2.31-2.55,5.89,5.89,0,0,0-3.51-.65,7.94,7.94,0,0,0-4.45,1.83,7.17,7.17,0,0,0-2.43,4q-.53,2.38.06,8.61l1.6,16.83-9.83.94-3.54-37.17,9.14-.87.52,5.46q4.26-6.76,11.65-7.46a14.77,14.77,0,0,1,6.06.6,10,10,0,0,1,4.36,2.61,10.85,10.85,0,0,1,2.32,3.94,30.7,30.7,0,0,1,1.17,6.57Z" transform="translate(-130.3 -32.08)"/><path class="a94c027f-0b55-4e18-bb27-0b5bbb69e152" d="M496.81,84.78l11.26,1.51A3.87,3.87,0,0,0,509.34,89a7.5,7.5,0,0,0,4.42,1.11A11.5,11.5,0,0,0,519.57,89a4.79,4.79,0,0,0,2-2.47,15,15,0,0,0,.51-4.53l.07-5.45c-3,4-6.75,6-11.25,5.91A13.79,13.79,0,0,1,499.06,76a21.58,21.58,0,0,1-3.28-12.55q.11-9.39,4.69-14.29a14.57,14.57,0,0,1,11.3-4.81q6.91.08,11.35,6.22l.06-5.24,9.25.12L532,78.93a33.38,33.38,0,0,1-1.21,9.87,12.29,12.29,0,0,1-3.12,5.09,13.45,13.45,0,0,1-5.3,2.85,27.55,27.55,0,0,1-8.32,1q-9.49-.12-13.43-3.42A10.18,10.18,0,0,1,496.76,86C496.76,85.65,496.78,85.25,496.81,84.78ZM505.91,63q-.07,5.94,2.19,8.73a7.11,7.11,0,0,0,5.64,2.83,7.82,7.82,0,0,0,6.15-2.75q2.54-2.8,2.61-8.35c0-3.87-.71-6.75-2.29-8.65a7.6,7.6,0,0,0-6-2.88,7.27,7.27,0,0,0-5.88,2.68C506.76,56.42,506,59.22,505.91,63Z" transform="translate(-130.3 -32.08)"/><path class="a94c027f-0b55-4e18-bb27-0b5bbb69e152" d="M540.79,83.46l4-51.38,9.85.78-4,51.38Z" transform="translate(-130.3 -32.08)"/><path class="a94c027f-0b55-4e18-bb27-0b5bbb69e152" d="M584.12,88.58l.85-5.52a14.43,14.43,0,0,1-6,3.84,15,15,0,0,1-7.19.65,13.7,13.7,0,0,1-6.42-2.66,9.78,9.78,0,0,1-3.57-5.24,20.74,20.74,0,0,1-.07-8.37l3.58-23.35L575,49.42l-2.6,17q-1.19,7.78-.92,9.62a5.22,5.22,0,0,0,1.54,3.08,6,6,0,0,0,3.45,1.58,7.78,7.78,0,0,0,4.7-.68,7.08,7.08,0,0,0,3.23-3c.69-1.28,1.45-4.57,2.25-9.85l2.39-15.57,9.76,1.5L593.19,90Zm-12.74-46.4,1.29-8.38L581,35.08l-1.28,8.38Zm15,2.29,1.28-8.38L596,37.38l-1.28,8.37Z" transform="translate(-130.3 -32.08)"/><path class="a94c027f-0b55-4e18-bb27-0b5bbb69e152" d="M640.08,74.41l-9.87-.7a7,7,0,0,0-1.09-4.81,6.75,6.75,0,0,0-4-2.54,7.36,7.36,0,0,0-6.34,1q-2.74,1.94-4.22,7.72-1.63,6.45-.15,9.65a7.29,7.29,0,0,0,5.13,4.13,6.62,6.62,0,0,0,4.86-.41q2.13-1.11,3.81-4.71l9,4q-3.12,6.1-8.11,8.35t-12,.47q-7.93-2-11.39-8.22t-1.19-15.07q2.26-9,8.28-12.75t14.08-1.74c4.4,1.12,7.67,3,9.78,5.52A16.27,16.27,0,0,1,640.08,74.41Z" transform="translate(-130.3 -32.08)"/><path class="a94c027f-0b55-4e18-bb27-0b5bbb69e152" d="M639.32,101.75,656.5,53.16l9.31,3.29L656.7,82.24,672,73.7l11.46,4-16.57,8.61,5,26.9-10-3.55-3.26-18.94-6,3-4,11.27Z" transform="translate(-130.3 -32.08)"/><path class="a94c027f-0b55-4e18-bb27-0b5bbb69e152" d="M718.69,122.42l8,6a16.19,16.19,0,0,1-9.1,4.6,17.56,17.56,0,0,1-10.41-2.15q-8.67-4.44-9.93-12.24-1-6.21,2.58-13.13,4.24-8.26,10.95-10.73a16,16,0,0,1,13.32.92q7.41,3.8,9.19,10.89t-3.59,17.1l-22-11.28a9.93,9.93,0,0,0-1,7.18,7.49,7.49,0,0,0,3.95,4.77,6.08,6.08,0,0,0,4.05.65A7.88,7.88,0,0,0,718.69,122.42Zm5-8.63c1.24-2.58,1.58-4.85,1-6.81a6.77,6.77,0,0,0-3.55-4.33,6.86,6.86,0,0,0-5.83-.34,9.12,9.12,0,0,0-4.76,4.75Z" transform="translate(-130.3 -32.08)"/><path class="a94c027f-0b55-4e18-bb27-0b5bbb69e152" d="M728.63,141.58l5.07-8.47,8.48,5.07-5.08,8.48Z" transform="translate(-130.3 -32.08)"/><path class="a94c027f-0b55-4e18-bb27-0b5bbb69e152" d="M771.62,170.22l17.23-51.95,8.89,7-13.22,38.09L818,141l8.7,6.79-46.28,29.25Z" transform="translate(-130.3 -32.08)"/><path class="a94c027f-0b55-4e18-bb27-0b5bbb69e152" d="M792.71,187.46l6.67-7.28,7.29,6.67L800,194.14Z" transform="translate(-130.3 -32.08)"/><path class="a94c027f-0b55-4e18-bb27-0b5bbb69e152" d="M312.12,950l19.42-47.28,9.62,4-16.11,39.25L349,955.77l-3.3,8Z" transform="translate(-130.3 -32.08)"/><path class="a94c027f-0b55-4e18-bb27-0b5bbb69e152" d="M379.56,962l8.93,4.47a16.14,16.14,0,0,1-8.15,6.12,17.59,17.59,0,0,1-10.63-.3Q360.4,969.47,357.8,962q-2-6,.25-13.39,2.71-8.86,8.9-12.47a16,16,0,0,1,13.27-1.42q8,2.44,11,9.12t-.55,17.46L367,954.05a10,10,0,0,0,.28,7.24,7.48,7.48,0,0,0,4.73,4,6,6,0,0,0,4.1-.06A7.76,7.76,0,0,0,379.56,962Zm3.47-9.38c.77-2.75.71-5-.2-6.88a7.13,7.13,0,0,0-10.05-3,9.08,9.08,0,0,0-3.86,5.51Z" transform="translate(-130.3 -32.08)"/><path class="a94c027f-0b55-4e18-bb27-0b5bbb69e152" d="M396.21,979.07l10.5-50.46,9.67,2L412.6,948.8a14,14,0,0,1,11.66-2.89,14.58,14.58,0,0,1,10.05,7.14q3.36,5.75,1.48,14.79-1.95,9.36-7.46,13.5a14.19,14.19,0,0,1-11.88,2.8,13.54,13.54,0,0,1-5.85-2.85,15.13,15.13,0,0,1-4.29-5.72l-1.11,5.37ZM409.78,962c-.78,3.79-.77,6.71.05,8.77A7.83,7.83,0,0,0,415.7,976a7,7,0,0,0,6-1.6c1.88-1.52,3.23-4.23,4-8.16q1.31-6.25-.39-9.51a7.35,7.35,0,0,0-5.24-4,7.44,7.44,0,0,0-6.34,1.5Q410.93,956.49,409.78,962Z" transform="translate(-130.3 -32.08)"/><path class="a94c027f-0b55-4e18-bb27-0b5bbb69e152" d="M465.51,978.62l9.6,2.74a16.19,16.19,0,0,1-6.88,7.52,17.58,17.58,0,0,1-10.5,1.67q-9.68-1.08-13.61-7.93-3.11-5.48-2.24-13.2,1-9.23,6.44-13.9a16,16,0,0,1,12.78-3.86q8.28.93,12.45,6.93t2.7,17.27l-24.59-2.76a10,10,0,0,0,1.61,7.06,7.5,7.5,0,0,0,5.39,3.07,6.07,6.07,0,0,0,4-.83A7.85,7.85,0,0,0,465.51,978.62Zm1.67-9.86q.38-4.28-1.48-6.73a6.76,6.76,0,0,0-4.85-2.79,6.84,6.84,0,0,0-5.57,1.75,9.07,9.07,0,0,0-2.77,6.12Z" transform="translate(-130.3 -32.08)"/><path class="a94c027f-0b55-4e18-bb27-0b5bbb69e152" d="M519.42,992.91l-9.88-.19.36-19.05q.11-6-.49-7.83a5.52,5.52,0,0,0-2-2.8,5.92,5.92,0,0,0-3.41-1,7.89,7.89,0,0,0-4.63,1.33A7.07,7.07,0,0,0,496.5,967c-.53,1.54-.84,4.39-.91,8.56l-.32,16.91-9.87-.18.69-37.33,9.17.17-.1,5.48q5-6.24,12.42-6.1a14.77,14.77,0,0,1,5.95,1.29,10,10,0,0,1,4,3.08,11.06,11.06,0,0,1,1.86,4.18,31.47,31.47,0,0,1,.42,6.66Z" transform="translate(-130.3 -32.08)"/><path class="a94c027f-0b55-4e18-bb27-0b5bbb69e152" d="M528,982.08l9.77-2.24a7.31,7.31,0,0,0,2.89,4.18,8.63,8.63,0,0,0,5.5,1.09,9.8,9.8,0,0,0,5.65-1.82,3.11,3.11,0,0,0,1.1-2.73,2.59,2.59,0,0,0-.83-1.81,7.93,7.93,0,0,0-3.4-1q-12.1-1.76-15.46-3.69a9.62,9.62,0,0,1-5-8,10.37,10.37,0,0,1,3.22-8.42Q535,954,543,953.37q7.65-.55,11.54,1.65a12.82,12.82,0,0,1,5.67,7l-9.17,2.4a5.73,5.73,0,0,0-2.51-3.16,8.26,8.26,0,0,0-4.83-.81q-3.9.28-5.5,1.5a2.33,2.33,0,0,0-1,2.08,2.2,2.2,0,0,0,1.11,1.72c.94.59,4.08,1.28,9.41,2.09s9.11,2,11.32,3.57a9.14,9.14,0,0,1,3.62,7.1,11.23,11.23,0,0,1-3.62,9.11c-2.68,2.67-6.8,4.21-12.39,4.62q-7.61.56-12.27-2.2A14.25,14.25,0,0,1,528,982.08Z" transform="translate(-130.3 -32.08)"/><path class="a94c027f-0b55-4e18-bb27-0b5bbb69e152" d="M576.23,936.3,579.38,955A14.78,14.78,0,0,1,596,947.81a10.08,10.08,0,0,1,4.61,2.5,11.78,11.78,0,0,1,2.6,4,38.7,38.7,0,0,1,1.73,7.23l3.64,21.6-9.74,1.64-3.28-19.45q-1-5.77-1.79-7.25a4.89,4.89,0,0,0-2.38-2.15,6.39,6.39,0,0,0-3.67-.33,8.26,8.26,0,0,0-4.14,1.91,7,7,0,0,0-2.19,4,21.65,21.65,0,0,0,.3,7.17l3.11,18.45L575,988.77l-8.55-50.83Z" transform="translate(-130.3 -32.08)"/><path class="a94c027f-0b55-4e18-bb27-0b5bbb69e152" d="M610.5,939l-2.15-8.89,9.61-2.32,2.15,8.88Zm10,41.21L611.7,944l9.6-2.33,8.78,36.29Z" transform="translate(-130.3 -32.08)"/><path class="a94c027f-0b55-4e18-bb27-0b5bbb69e152" d="M641.19,975l-14.32-49.51,9.49-2.75,14.32,49.51Z" transform="translate(-130.3 -32.08)"/><path class="a94c027f-0b55-4e18-bb27-0b5bbb69e152" d="M645.61,934.83l5.19-1.78-.91-2.66a18.61,18.61,0,0,1-1.33-7,7.92,7.92,0,0,1,2.27-4.77,14.2,14.2,0,0,1,6-3.59,27.46,27.46,0,0,1,8.23-1.47l1,6.95a19.43,19.43,0,0,0-4.48.94,4,4,0,0,0-2.58,1.94c-.37.83-.25,2.15.36,3.94l.85,2.5,7-2.39,2.51,7.35-7,2.39,9.56,28-9.34,3.19-9.57-28-5.19,1.77Z" transform="translate(-130.3 -32.08)"/><path class="a94c027f-0b55-4e18-bb27-0b5bbb69e152" d="M701.79,940.79l9.72-2.3a16.22,16.22,0,0,1-2.32,9.93,17.7,17.7,0,0,1-8.35,6.59q-9,3.78-15.75-.27-5.39-3.25-8.4-10.42-3.62-8.55-1.18-15.28a16,16,0,0,1,9.26-9.61q7.68-3.24,14.26,0t10.79,13.75L687,942.75a10.05,10.05,0,0,0,4.86,5.37,7.49,7.49,0,0,0,6.2,0,6,6,0,0,0,3.1-2.68A7.79,7.79,0,0,0,701.79,940.79Zm-3.36-9.42c-1.17-2.6-2.7-4.32-4.57-5.14a6.8,6.8,0,0,0-5.6-.07,6.89,6.89,0,0,0-4,4.25,9.14,9.14,0,0,0,.58,6.7Z" transform="translate(-130.3 -32.08)"/></g></svg>