<svg xmlns="http://www.w3.org/2000/svg" viewBox="0 0 763.11 744.3"><defs><style>.b58ff882-05b6-4e1f-9cdd-e232fb3d33ee{fill:#c6d970;}.ac69d424-da95-4a9b-9563-31a5f5e96907{fill:#3fb7d9;}</style></defs><title>SGlogo</title><g id="e6605c3b-30de-42d6-b914-d3bc68a85dac" data-name="Grün"><path class="b58ff882-05b6-4e1f-9cdd-e232fb3d33ee" d="M892.94,610.33c-44,165.45-198,277.82-381.28,277.82S174.49,775.86,130.42,610.5l124.49-.33c40.13,97.64,140,151.68,256.75,151.68C628.27,761.85,728,708,768.22,610.62ZM638.18,639.88c0,69.75-78.31,194.29-126.28,194.29-35.85,0-126.28-124.54-126.28-194.29S442.15,521.6,511.9,521.6,638.18,570.14,638.18,639.88Z" transform="translate(-130.3 -143.84)"/></g><g id="e86493a9-aaea-4d1d-b14f-51323b4416a2" data-name="Türkis"><circle class="ac69d424-da95-4a9b-9563-31a5f5e96907" cx="381.7" cy="53.66" r="53.66"/><circle class="ac69d424-da95-4a9b-9563-31a5f5e96907" cx="53.66" cy="334.7" r="53.66"/><circle class="ac69d424-da95-4a9b-9563-31a5f5e96907" cx="109.31" cy="194.18" r="53.66"/><circle class="ac69d424-da95-4a9b-9563-31a5f5e96907" cx="230.18" cy="91.31" r="53.66"/><circle class="ac69d424-da95-4a9b-9563-31a5f5e96907" cx="709.45" cy="334.7" r="53.66"/><circle class="ac69d424-da95-4a9b-9563-31a5f5e96907" cx="653.8" cy="194.18" r="53.66"/><circle class="ac69d424-da95-4a9b-9563-31a5f5e96907" cx="532.94" cy="91.31" r="53.66"/></g></svg>